<?xml version="1.0" encoding="UTF-8"?>
<svg version="1.1" viewBox="0 0 1852 1852" width="1852" height="1852" xmlns="http://www.w3.org/2000/svg">
<path transform="translate(830,422)" d="m0 0h470l1 5-10 18-11 23-15 33-7 16-7 14-5 12-15 33-8 18-7 15-6 13-4 10-3 5-9 21-7 15-10 23-8 16-4 10-8 17-8 19-3 5-20 45-5 10-6 13-2 4v3h158l13-1 18-5 12-6 3-1v-2l9-7 6-7 7-9 6-11 5-8 10-23 8-17 6-12 4-10 6-12 3-7 5-12 7-16 8-16 6-13 9-21 7-15 6-14 1-10v-14l-3-7-3-2v-6l-2 3-8-1-9-2 1-7 8-16 5-11 2-8-10 19-5 11-6 12h-17l1-6 14-29 9-20 8-18 10-24 8-16 8-17 2-1 15-1 1 1-1 7-3 8 8-14 7-2h11l1 1v5l1 1 1-5 4-2h15l3 1 2-1h117l4 1 26 2 10 2 17 4 20 8 11 6 13 10 4 3v2h2l10 13 4 7 5 11 4 16v38l-5 25-6 19-10 25-4 8-4 10-10 22-13 29-9 20-11 25-7 15-4 8-4 10-8 18-8 15-7 14-10 16-9 13-12 16-12 14-11 12-5 5h-2l-2 4-8 7-13 11-17 12-17 11-18 10-29 13-24 8-17 5-23 5-24 4-39 2h-256l-21 3-12 4-14 8-10 9-7 8-9 14-8 16-15 32-9 21-9 19-3 7-9 20-15 33-8 18-9 21-3 5h-314l1-4 11-24 13-29 12-26 9-21 7-16 5-10 12-27 6-13 6-14 7-15 13-30 10-21 5-12 11-25 7-15 14-31 10-23 5-10 11-25 17-38 10-23 7-15 14-31 8-19 7-14 9-21 20-44 22-50 5-12v-2l-6 1h-147l1-7 11-24 5-10 15-33 16-35 5-11 3-7 3-5zm656 8 1 2zm-27 11 1 2zm-1 2-2 3 1 3 2-6z" fill="#36363B"/>
<path transform="translate(830,422)" d="m0 0h470l1 5-10 18-11 23-15 33-7 16-7 14-5 12-15 33-8 18-7 15-6 13-4 10-3 5-9 21-7 15-10 23-8 16-4 10-8 17-8 19-3 5-20 45-5 10-6 13-2 4v4l-116 1-24 2-29 5-25 6-30 10-25 11-21 11-16 10-14 10-14 11-13 12h-2l-1 3-8 7-11 12-1 2h-2l-2 4-7 9-14 19-11 18-7 11-1-3 13-29 8-17 5-12 11-25 7-15 14-31 10-23 5-10 11-25 17-38 10-23 7-15 14-31 8-19 7-14 9-21 20-44 22-50 5-12v-2l-6 1h-147l1-7 11-24 5-10 15-33 16-35 5-11 3-7 3-5z" fill="#EC4437"/>
<path transform="translate(749,296)" d="m0 0h389v4l-8 18-5 10-6 14-5 11h-330l-2 5-6 13-5 12-14 31-7 15-4 8-4 10-11 25-5 10-4 10-9 19-16 36-12 26-9 20-4 9-6 13-5 12-9 19-8 19-5 10-8 18-9 20-10 23-5 10-9 20-6 15-8 16-16 36-6 13-12 27-7 15-9 21-5 10-5 12-7 15-5 11-7 16-5 10-8 18-7 16-5 10-4 10-13 29-6 13-7 16-7 15-5 11-7 16-12 26-15 33-9 21-5 10-18 40-4 8 1 3h327l-3 9-6 12-13 29-4 7-389 1-1-3 8-18 4-8 8-18 7-14 4-10 7-16 6-13 7-16 5-10 11-25 7-16 7-15 11-24 11-25 7-15 9-20 6-13 8-18 4-8 4-10 16-35 12-27 9-20 14-31 13-29 11-25 5-10 8-18 20-44 9-20 7-16 5-10 4-10 14-31 7-15 4-8 4-11 5-10 6-13 9-20 4-9 6-14 7-15 14-31 8-18 7-15 8-18 7-16 4-9 15-32 7-17 5-9 4-10 11-25 5-10 4-10 9-19 13-29 6-14z" fill="#3A393E"/>
<path transform="translate(1460,422)" d="m0 0 5 1-1 7-3 8 8-14 7-2h11l1 1v5l1 1 1-5 4-2h15l5 1-10 23-15 32-11 25-7 15-19 41-13 29-2 5-2-3 1-7v-14l-3-7-3-2v-6l-2 3-8-1-9-2 1-7 8-16 5-11 2-8-10 19-5 11-6 12h-17l1-6 14-29 9-20 8-18 10-24 8-16 8-17 2-1zm26 8 1 2zm-27 11 1 2zm-1 2-2 3 1 3 2-6z" fill="#3A383C"/>
<path transform="translate(381,1418)" d="m0 0h14l14 3 7 4 3 5 1 8-4 16-5 13-10 21-7 11-9 10-8 6-8 4-13 3h-27l-11-4-5-6-1-2v-14l4-12 12-28 10-16 6-7 8-6 12-6zm-12 22-5 2-7 6-8 14-8 17-3 9-1 8 5 5h19l9-4 8-10 11-23 4-11 1-8-2-4-3-1z" fill="#EC4C40"/>
<path transform="translate(563,1419)" d="m0 0h71l1 3-7 16-2 2-50 1-7 16v2h46l-1 6-7 14-48 1-7 15-2 6 8-1h39l1 4-7 16-3 2h-70l-1-3 14-31 7-16 6-13 13-29 5-10z" fill="#EC4E41"/>
<path transform="translate(237,1419)" d="m0 0h45l18 3 6 5 2 5v7l-4 14-8 13-5 6-10 7-11 4-11 2h-29l-1 5-12 28-3 4h-22l1-6 16-34 5-11 4-10 7-15 6-14 4-9zm14 21-7 14-3 10 5 1 23-1 7-4 6-9v-10l-2-1z" fill="#EC4E42"/>
<path transform="translate(465,1419)" d="m0 0h22l-1 7-6 13-11 25-7 15-5 11-5 10h47l1 4-8 17-1 1h-70l-1-4 9-19 9-21 14-30 9-20 3-8z" fill="#EC4E42"/>
<path transform="translate(1325,1419)" d="m0 0h10l2 7 5 35 4 24 1 8v10h3l3-10 15-33 7-16 8-18 3-6 1-1h9l-2 8-7 14-5 13-7 15-11 24-9 20-3 7-2 2h-10l-1-1-6-42-3-20-1-11-1-3v-7l-3 3-7 16-8 19-7 14-5 12-8 18-3 2h-7l-1-3 9-19 12-27 6-13 14-31z" fill="#575155"/>
<path transform="translate(807,1418)" d="m0 0h20l11 3 6 7 1 4v7l-4 13-7 16-6 13-8 16-9 12-9 7-11 5-5 1h-30l-8-3-5-6-1-2v-12l4-12 8-18 11-23 7-10 9-9 12-6zm-2 10-13 3-10 7-6 8-6 11-13 29-4 13v6l2 4 5 3 5 1h16l12-2 11-7 9-13 8-17 5-11 6-15 1-4v-9l-5-5-5-2z" fill="#575256"/>
<path transform="translate(1236,1418)" d="m0 0h20l12 4 5 5 1 4-1 13-6 16-5 12-7 15-8 14-9 10-5 4-7 4-11 3h-29l-8-3-6-6-1-8 2-11 13-31 8-16 6-9 6-7 7-6 12-5zm-4 10-11 3-9 7-6 7-8 15-12 27-4 12 1 7 4 5 8 2h17l10-2 10-6 7-8 8-16 12-26 4-12v-8l-5-5-7-2z" fill="#555054"/>
<path transform="translate(921,1418)" d="m0 0h20l12 3 6 6v12l-3 8h-10l1-5v-9l-5-3-3-1h-21l-12 2-7 4-7 8-4 9v9l4 2 10 1 24 1 9 2 5 5v11l-5 13-9 13-11 8-10 4-5 1h-31l-10-4-4-5v-12l3-7h9l1 3-2 10 3 3 8 2h20l11-2 9-6 6-8 4-8 1-9v-2l-4-1-32-2-10-2-5-4-2-9 3-11 7-12 7-8 6-4 10-4z" fill="#585155"/>
<path transform="translate(1460,422)" d="m0 0 5 1-1 7-3 8 4-7 1 3-16 34-15 33-8 18-1-3v-3l-11 22-5 11-4 8h-17l1-6 14-29 9-20 8-18 10-24 8-16 8-17 2-1zm-1 19 1 2zm-1 2-2 3 1 3 2-6z" fill="#444145"/>
<path transform="translate(672,1419)" d="m0 0h43l14 2 5 4 1 2v11l-7 17-3 5h-2l-2 4-8 7-9 4-6 1h-42l-2 6-6 13-5 11-5 12-4 4h-7l-1-4 9-20 8-16 5-12 4-10 7-15 11-24zm5 10-7 15-8 18-1 5h37l9-3 7-5 5-7 4-10v-9l-4-3-3-1z" fill="#5A5357"/>
<path transform="translate(1476,422)" d="m0 0h11l-1 8-8 17-15 33-19 41-14 31-2 5-8-1-9-2 1-7 8-16 12-25 15-33 17-37 4-11 2-2z" fill="#3D3A3E"/>
<path transform="translate(1426,423)" d="m0 0h14l1 2-4 11-7 14-13 28-7 16-7 15-8 17-7 15-6 13h-15l1-5 14-30 12-26 15-33 11-24 5-12z" fill="#4B4549"/>
<path transform="translate(1415,422)" d="m0 0 2 1-1 6-7 15-13 28-9 20-13 28-13 29-3 5h-13l1-5 8-18 8-16 5-12 5-10 4-10 14-31 7-14 6-14 1-1z" fill="#4D484C"/>
<path transform="translate(1050,1419)" d="m0 0h74l-2 8-2 2-32 1-6 13-14 32-5 10-7 16-8 18-2 3h-9l-1-2 4-10 8-16 5-12 5-11 5-12 14-30h-31l1-6z" fill="#5E5A5E"/>
<path transform="translate(1390,422)" d="m0 0h3l1 3-9 20-7 15-8 17-12 26-12 27-7 15-4 8-1 1h-11l1-6 14-30 9-21 5-11 6-13 5-12v-5l4-2 1-5 2-3h-3v-4l3-1 3 1 1-5 7-13 1-1z" fill="#514C50"/>
<path transform="translate(1367,422)" d="m0 0 3 1-1 7-5 12-8 16-8 18-8 16-8 17-9 20-11 24-1 1h-10l1-6 15-32 10-24 6-14 8-16 12-25 7-14z" fill="#5F595D"/>
<path transform="translate(1340,422)" d="m0 0h6l1 5-3 4-4 10-8 18-7 13-3 7-8 17-12 26-12 27-2 5h-9l1-5 14-31 5-12 7-15 7-17 3-8 1-2v-3l4-1 3-9 13-27z" fill="#686265"/>
<path transform="translate(1008,1419)" d="m0 0h9l-1 5-13 29-4 9-6 14-7 15-6 14-8 16-6 1-4-1 1-5 9-20 7-15 8-18 11-25 5-11 4-7z" fill="#60585C"/>
<path transform="translate(1156,1419)" d="m0 0h10l-1 5-9 20-14 32-7 14-5 12-8 18-3 2h-7l-1-4 9-19 20-45 7-15 8-19z" fill="#5D575B"/>
<path transform="translate(1317,422)" d="m0 0h6l-1 7-5 11-8 18-7 14-8 18-8 16-10 21-8 18-4 8-1 1h-6l1-5 10-21 9-20 17-37 9-20 8-19 5-9z" fill="#787174"/>
<path transform="translate(1464,423)" d="m0 0h1l-1 7-3 8 4-7 1 3-16 34-15 33-8 18-1-3v-3l-5 10-1-3 16-34 15-33 12-26zm-5 18 1 2zm-1 2-2 3 1 3 2-6z" fill="#FDFDFD"/>
<path transform="translate(1487,423)" d="m0 0h1v5l1 3-12 25-15 33-18 39-12 27-3-1 3-9 15-32 11-24 15-33 13-29zm-1 7 1 2z" fill="#FCFCFC"/>
<path transform="translate(1512,423)" d="m0 0 2 1-9 19-15 33-12 27-7 15-19 41-13 29-2 5-2-3 1-7h2l15-32 15-33 18-39 12-27 7-15z" fill="#FDFDFD"/>
<path transform="translate(1200,422)" d="m0 0h100l1 5-6 10-1-3 5-11h-99z" fill="#FDFDFD"/>
<path transform="translate(1450,559)" d="m0 0 1 3-8 17-6 14-2-3 1-7h2l11-23z" fill="#FDFDFD"/>
<path transform="translate(1369,441)" d="m0 0 4 1-1 5-11 24-1-3 3-7v-5l4-2 1-5 2-3h-3v-4z" fill="#FDFDFD"/>
<path transform="translate(1316,466)" d="m0 0 2 1-1 5-8 17-1-3 6-13z" fill="#FDFDFD"/>
<path transform="translate(1441,579)" d="m0 0 1 3-5 11-2-3 1-7h2z" fill="#FCF2F1"/>
<path transform="translate(1323,454)" d="m0 0 1 3-5 10-2-3v-3l4-1z" fill="#FDFDFD"/>
<path transform="translate(1311,465)" d="m0 0 3 1-1 5-1 2-2-1v-6z" fill="#FDFDFD"/>
<path transform="translate(1317,454)" d="m0 0 2 3-2 2z" fill="#FDFDFD"/>
<path transform="translate(1327,481)" d="m0 0 2 2-2 1z" fill="#FDFDFD"/>
</svg>
