<?xml version="1.0" encoding="UTF-8"?>
<svg version="1.1" viewBox="0 0 900 900" width="225" height="225" xmlns="http://www.w3.org/2000/svg">
<path transform="translate(352,253)" d="m0 0h227l-1 5-13 28-14 32-7 15-12 26-16 36-13 28-11 24-3 7 7 1h61l17-1 11-4 8-6 7-10 8-16 13-28 15-33 7-16 4-10-1-5-2-5 1-7 10-21 16-36 2-3h73l17 2 14 5 11 7 8 8 6 12 2 9v11l-3 17-7 20-38 84-8 15-9 13-7 9-11 12-13 11-15 10-16 8-15 6-24 6-15 2-137 1-15 2-8 4-9 8-9 15-19 42-16 35-4 9h-152l2-6 10-23 7-15 15-33 13-29 11-25 19-42 18-41 16-35 9-20 16-36 6-15h-74l1-5 10-21 13-29 4-8zm330 2m-1 1 1 2zm-1 2 1 2zm-1 2 1 2zm-1 2 1 2zm-1 2 1 2zm-1 3m-1 2m-1 2 1 2zm-1 2 1 2zm-1 2 1 2zm-1 3m-1 1 1 3zm-1 3 1 2zm-1 2 1 2zm-1 2 1 2zm-1 3 1 2zm-1 2 1 2zm-1 2 1 2zm-1 2 1 2zm-1 3 1 2zm-1 2m-3 6 1 2z" fill="#343439"/>
<path transform="translate(352,253)" d="m0 0h227l-1 5-13 28-14 32-7 15-12 26-16 36-13 28-11 24-3 7 7 1v1l-73 2-24 4-21 7-17 8-18 12-11 9-12 12-9 11-10 15-2-1 15-33 56-126 7-15 13-29 6-15h-74l1-5 10-21 13-29 4-8z" fill="#E74539"/>
<path transform="translate(313,192)" d="m0 0h187l-1 5-9 20-2 2-160 1-3 9-13 28-16 36-16 35-16 36-16 35-9 20-14 31-15 33-18 40-16 36-12 26-13 29-18 40-7 15h160l-9 20-3 6-1 1h-188l1-5 7-14 9-21 7-15 18-40 11-25 7-15 15-33 19-42 16-36 16-35 12-27 7-16 7-15 16-35 16-36 15-33 19-42 8-17z" fill="#363539"/>
<path transform="translate(259,629)" d="m0 0 3 2 2-1v2l23-1 44 1h53l2 1 17-1 4-1-1 6h-152l2-6z" fill="#29292D"/>
<path transform="translate(673,254)" d="m0 0h11l-5 8-2 7-1 2h-2l-1 7-2 1-3 9-2 1-2 9h-2l-1 6-1 2h-2l1 3-8 16-3 4-4-8 1-7 10-21 16-36z" fill="#53484C"/>
<path transform="translate(662,254)" d="m0 0h9l-9 19-16 36-4 8-1 1h-5l-1-4 16-35z" fill="#373033"/>
<path transform="translate(655,253)" d="m0 0 5 1-9 19-15 33-4 10-1 1h-6l-1-3 8-17 13-29 7-14z" fill="#3E3437"/>
<path transform="translate(643,253)" d="m0 0h4l-1 5-9 20-17 38-6 1-1-2 12-26 15-34z" fill="#3F3437"/>
<path transform="translate(632,253)" d="m0 0 4 1-2 6-17 37-8 18-2 2-5-1 9-20 12-27 6-14z" fill="#403436"/>
<path transform="translate(621,253)" d="m0 0h3l-1 6-17 37-8 18-3 3-4-2 10-21 16-36 2-4z" fill="#3D393D"/>
<path transform="translate(612,253)" d="m0 0 1 3-11 24-13 29-3 7-4 1-1-3 19-42 7-16z" fill="#453B3E"/>
<path transform="translate(598,254)" d="m0 0 4 1-12 27-7 15-8 18-5 1 2-6 19-42 6-13z" fill="#583739"/>
<path transform="translate(662,254)" d="m0 0h9l-9 19-16 36-4 8-3 1 3-10 3-5 2-7h2l2-10 3-5 7-16 3-4-3-2z" fill="#4B4144"/>
<path transform="translate(589,253)" d="m0 0h2l-2 6-8 18-7 14-10 23-2 2h-3l2-5 9-20 13-29 3-6z" fill="#CE615A"/>
<path transform="translate(593,517)" d="m0 0 2 1h19l2 2h-128v-1l16-1h82z" fill="#26262A"/>
<path transform="translate(612,253)" d="m0 0 1 3-11 24-2 5-3-4 1-5 9-20z" fill="#4B4246"/>
<path transform="translate(621,253)" d="m0 0h3l-1 6-10 22-3-1-1-4 9-21z" fill="#3A2E30"/>
<path transform="translate(598,254)" d="m0 0 4 1-12 27-2 1-2-1-1 4-1-3 12-27z" fill="#7C5C5D"/>
<path transform="translate(228,438)" d="m0 0 1 3-13 29-3 4-1-3 5-12 2-6v-3h2l2-5z" fill="#372F32"/>
<path transform="translate(662,258)" d="m0 0 3 4-2 3h-2v4h-2l-1 6-5 10-5 2 2-6 10-22z" fill="#382F32"/>
<path transform="translate(168,513)" d="m0 0 1 4-2 7-1 3-3 3-2 5-5 10h-2l-1 2 1-6 12-26z" fill="#362F32"/>
<path transform="translate(599,298)" d="m0 0 4 4-5 12-3 3-4-2z" fill="#42383C"/>
<path transform="translate(569,293)" d="m0 0h3l-1 5-7 16-2 2h-3l2-5z" fill="#8D5A59"/>
<path transform="translate(612,253)" d="m0 0 1 3-7 15h-2v-9l5-8z" fill="#474044"/>
<path transform="translate(589,253)" d="m0 0h2l-2 6-6 13h-2l-1 2-2-1 7-16z" fill="#F2A19B"/>
<path transform="translate(591,269)" d="m0 0h1v8l-3 6-3-1-1 4-1-3z" fill="#6D4E4F"/>
<path transform="translate(596,281)" d="m0 0h2l1 6-3 7h-2v-2h-2l3-9z" fill="#43393C"/>
<path transform="translate(614,265)" d="m0 0h1v12l-3 4-2-1-1-4z" fill="#524144"/>
<path transform="translate(575,303)" d="m0 0 3 3-3 9-5 1 2-6z" fill="#52484B"/>
<path transform="translate(619,517)" d="m0 0h13l2 2-3 1h-15z" fill="#302D30"/>
<path transform="translate(564,304)" d="m0 0 2 3-2 7-2 2h-3l2-5z" fill="#AC6E6B"/>
<path transform="translate(591,292)" d="m0 0h3l1 4-3 4h-4l2-6z" fill="#5C484A"/>
<path transform="translate(603,265)" d="m0 0h2l-1 6 2 1-3 4-1-3-2-1z" fill="#585356"/>
<path transform="translate(642,288)" d="m0 0 1 3-6 13-2-1 3-9z" fill="#524D51"/>
<path transform="translate(292,551)" d="m0 0 3 1-1 6-4 2 1-7z" fill="#3C373B"/>
<path transform="translate(589,253)" d="m0 0h2l-2 6-2 4h-2v-6z" fill="#ED766D"/>
<path transform="translate(609,277)" d="m0 0 1 3h2l-1 5-2 3-1-2v-8z" fill="#2F2F33"/>
<path transform="translate(90,686)" d="m0 0h1l-1 7-3 3h-2l1-5 2-3h2z" fill="#2F292C"/>
<path transform="translate(299,540)" d="m0 0h2l-1 4-3 8-2-1 1-6z" fill="#27272B"/>
<path transform="translate(578,298)" d="m0 0h3l-1 6-1 2h-2l-1-5z" fill="#483537"/>
<path transform="translate(621,253)" d="m0 0h3l-1 6-3 5-2-1 2-4z" fill="#685C5E"/>
</svg>
